<svg width="40" height="6" viewBox="0 0 40 6" fill="none" xmlns="http://www.w3.org/2000/svg">
<path d="M2.55559 4.17C2.55559 4.32333 2.56892 4.44 2.59559 4.52C2.62892 4.59333 2.68225 4.65 2.75559 4.69C2.82892 4.73 2.94892 4.77333 3.11559 4.82L3.04559 5H1.30559L1.22559 4.9L1.30559 4.78C1.41892 4.62667 1.49559 4.47333 1.53559 4.32C1.58225 4.16 1.60225 3.95 1.59559 3.69V1C1.59559 0.833333 1.57892 0.723333 1.54559 0.67C1.51892 0.61 1.46225 0.58 1.37559 0.58H1.26559C1.03892 0.58 0.86892 0.65 0.755586 0.79C0.642253 0.923333 0.525586 1.16667 0.405586 1.52L0.205586 1.45V0.2L0.305586 0.11L0.425586 0.2C0.552253 0.286667 0.79892 0.33 1.16559 0.33H2.99559C3.36225 0.33 3.60892 0.286667 3.73559 0.2L3.85559 0.11L3.96559 0.2V1.45L3.75559 1.52C3.62892 1.15333 3.50892 0.906666 3.39559 0.78C3.28892 0.646666 3.12559 0.58 2.90559 0.58H2.77559C2.68892 0.58 2.62892 0.61 2.59559 0.67C2.56892 0.723333 2.55559 0.833333 2.55559 1V4.17ZM8.03902 4.66C7.79902 4.94667 7.48569 5.09 7.09902 5.09C6.85902 5.09 6.66902 5.03667 6.52902 4.93C6.39569 4.81667 6.27902 4.62667 6.17902 4.36L5.88902 3.48C5.82236 3.3 5.76236 3.17 5.70902 3.09C5.65569 3.00333 5.57236 2.93667 5.45902 2.89L5.28902 2.8L5.30902 2.7C5.36236 2.70667 5.43236 2.71 5.51902 2.71C5.59902 2.71 5.65569 2.70667 5.68902 2.7C5.93569 2.66 6.12902 2.54667 6.26902 2.36C6.40902 2.17333 6.47902 1.93333 6.47902 1.64C6.47902 1.28667 6.39569 1.00667 6.22902 0.8C6.06236 0.586666 5.84236 0.48 5.56902 0.48C5.26902 0.48 5.11902 0.62 5.11902 0.9V3.69C5.11902 3.95 5.13902 4.16 5.17902 4.32C5.22569 4.47333 5.30569 4.62667 5.41902 4.78L5.49902 4.9L5.41902 5H3.67902L3.60902 4.82C3.77569 4.77333 3.89569 4.73 3.96902 4.69C4.04236 4.64333 4.09236 4.58333 4.11902 4.51C4.14569 4.43667 4.15902 4.32333 4.15902 4.17V1.51C4.15902 1.27667 4.13902 1.1 4.09902 0.98C4.06569 0.853333 3.98236 0.75 3.84902 0.67L3.72902 0.6L3.76902 0.47C3.97569 0.403333 4.23902 0.35 4.55902 0.31C4.88569 0.263333 5.17569 0.24 5.42902 0.24C6.06236 0.24 6.56236 0.366667 6.92902 0.62C7.29569 0.873333 7.47902 1.22 7.47902 1.66C7.47902 1.96667 7.37902 2.24 7.17902 2.48C6.98569 2.71333 6.73569 2.87 6.42902 2.95C6.66902 3.05667 6.83569 3.23667 6.92902 3.49L7.27902 4.47C7.33236 4.63 7.43569 4.71 7.58902 4.71C7.70902 4.71 7.83236 4.65667 7.95902 4.55L8.03902 4.66ZM11.291 4.1C11.3576 4.28667 11.431 4.43667 11.511 4.55C11.591 4.65667 11.7143 4.77333 11.881 4.9L11.791 5H9.98098L9.92098 4.82L10.071 4.78C10.171 4.74667 10.241 4.70667 10.281 4.66C10.3276 4.60667 10.351 4.53667 10.351 4.45C10.351 4.39667 10.3143 4.26 10.241 4.04L10.041 3.45H8.49098L8.41098 3.7C8.31098 4 8.26098 4.22667 8.26098 4.38C8.26098 4.52667 8.28764 4.66 8.34098 4.78L8.41098 4.9L8.32098 5H7.22098L7.15098 4.82L7.30098 4.78C7.46098 4.73333 7.58098 4.67 7.66098 4.59C7.74098 4.50333 7.81764 4.35333 7.89098 4.14L8.91098 1.2C8.95764 1.03333 8.98098 0.916666 8.98098 0.85C8.98098 0.703333 8.87431 0.6 8.66098 0.54L8.55098 0.51L8.62098 0.33H9.98098L11.291 4.1ZM9.94098 3.17L9.26098 1.14L8.59098 3.17H9.94098ZM15.6687 0.55C15.562 0.703333 15.4854 0.86 15.4387 1.02C15.3987 1.18 15.3787 1.38667 15.3787 1.64V4.43C15.3787 4.57 15.4087 4.68667 15.4687 4.78L15.5587 4.9L15.4687 5H14.4287L12.2087 1.17V3.69C12.2087 3.95667 12.2287 4.17 12.2687 4.33C12.3154 4.48333 12.392 4.63333 12.4987 4.78L12.5887 4.9L12.4987 5H11.3987L11.3287 4.82C11.502 4.77333 11.622 4.73 11.6887 4.69C11.762 4.65 11.812 4.59333 11.8387 4.52C11.8654 4.44667 11.8787 4.33 11.8787 4.17V1.53C11.8787 1.23667 11.852 1.02333 11.7987 0.89C11.7454 0.756666 11.6287 0.613333 11.4487 0.46L11.5287 0.33H12.8287L15.0587 4.19V1.16C15.0587 0.96 15.0154 0.82 14.9287 0.74C14.8487 0.66 14.6787 0.583333 14.4187 0.51L14.4787 0.33H15.6687L15.7587 0.44L15.6687 0.55ZM20.8607 0.44C20.6941 0.573333 20.5707 0.693333 20.4907 0.8C20.4107 0.906667 20.3407 1.05 20.2807 1.23L19.0207 5H18.1507L16.8707 1.23C16.8041 1.04333 16.7307 0.896666 16.6507 0.79C16.5774 0.683333 16.4574 0.566667 16.2907 0.44L16.3707 0.33H18.1907L18.2507 0.51L18.1107 0.55C18.0041 0.576666 17.9307 0.616666 17.8907 0.67C17.8507 0.716666 17.8307 0.786666 17.8307 0.88C17.8307 0.946666 17.8541 1.05333 17.9007 1.2L18.9007 4.21L19.9007 1.22C19.9474 1.07333 19.9707 0.963333 19.9707 0.89C19.9707 0.81 19.9474 0.746667 19.9007 0.7C19.8607 0.646666 19.7907 0.606666 19.6907 0.58L19.5107 0.51L19.5807 0.33H20.7807L20.8607 0.44ZM23.7546 4.1C23.8213 4.28667 23.8946 4.43667 23.9746 4.55C24.0546 4.65667 24.178 4.77333 24.3446 4.9L24.2546 5H22.4446L22.3846 4.82L22.5346 4.78C22.6346 4.74667 22.7046 4.70667 22.7446 4.66C22.7913 4.60667 22.8146 4.53667 22.8146 4.45C22.8146 4.39667 22.778 4.26 22.7046 4.04L22.5046 3.45H20.9546L20.8746 3.7C20.7746 4 20.7246 4.22667 20.7246 4.38C20.7246 4.52667 20.7513 4.66 20.8046 4.78L20.8746 4.9L20.7846 5H19.6846L19.6146 4.82L19.7646 4.78C19.9246 4.73333 20.0446 4.67 20.1246 4.59C20.2046 4.50333 20.2813 4.35333 20.3546 4.14L21.3746 1.2C21.4213 1.03333 21.4446 0.916666 21.4446 0.85C21.4446 0.703333 21.338 0.6 21.1246 0.54L21.0146 0.51L21.0846 0.33H22.4446L23.7546 4.1ZM22.4046 3.17L21.7246 1.14L21.0546 3.17H22.4046ZM28.1324 0.55C28.0257 0.703333 27.9491 0.86 27.9024 1.02C27.8624 1.18 27.8424 1.38667 27.8424 1.64V4.43C27.8424 4.57 27.8724 4.68667 27.9324 4.78L28.0224 4.9L27.9324 5H26.8924L24.6724 1.17V3.69C24.6724 3.95667 24.6924 4.17 24.7324 4.33C24.7791 4.48333 24.8557 4.63333 24.9624 4.78L25.0524 4.9L24.9624 5H23.8624L23.7924 4.82C23.9657 4.77333 24.0857 4.73 24.1524 4.69C24.2257 4.65 24.2757 4.59333 24.3024 4.52C24.3291 4.44667 24.3424 4.33 24.3424 4.17V1.53C24.3424 1.23667 24.3157 1.02333 24.2624 0.89C24.2091 0.756666 24.0924 0.613333 23.9124 0.46L23.9924 0.33H25.2924L27.5224 4.19V1.16C27.5224 0.96 27.4791 0.82 27.3924 0.74C27.3124 0.66 27.1424 0.583333 26.8824 0.51L26.9424 0.33H28.1324L28.2224 0.44L28.1324 0.55ZM33.3244 3.74C33.3244 3.97333 33.3344 4.15 33.3544 4.27C33.3744 4.39 33.4144 4.49333 33.4744 4.58C33.5344 4.66667 33.6277 4.76667 33.7544 4.88L33.6744 5H31.9144L31.8544 4.82C32.0077 4.78 32.1177 4.74 32.1844 4.7C32.2577 4.65333 32.3044 4.59333 32.3244 4.52C32.3511 4.44 32.3644 4.32333 32.3644 4.17V2.77H30.5944V3.74C30.5944 3.97333 30.6044 4.15333 30.6244 4.28C30.6444 4.4 30.6811 4.50333 30.7344 4.59C30.7944 4.67 30.8877 4.76667 31.0144 4.88L30.9444 5H29.1844L29.1244 4.82C29.3444 4.76 29.4844 4.69333 29.5444 4.62C29.6044 4.54 29.6344 4.39 29.6344 4.17V1.57C29.6344 1.25 29.6077 1.02667 29.5544 0.9C29.5077 0.766667 29.3877 0.62 29.1944 0.46L29.2744 0.33H30.9744L31.0444 0.49C30.8511 0.603333 30.7277 0.71 30.6744 0.81C30.6211 0.903333 30.5944 1.07333 30.5944 1.32V2.49H32.3644V1.57C32.3644 1.25 32.3377 1.02667 32.2844 0.9C32.2377 0.766667 32.1177 0.62 31.9244 0.46L32.0044 0.33H33.7044L33.7844 0.49C33.5911 0.603333 33.4644 0.71 33.4044 0.81C33.3511 0.903333 33.3244 1.07333 33.3244 1.32V3.74ZM37.5171 4.1C37.5838 4.28667 37.6571 4.43667 37.7371 4.55C37.8171 4.65667 37.9405 4.77333 38.1071 4.9L38.0171 5H36.2071L36.1471 4.82L36.2971 4.78C36.3971 4.74667 36.4671 4.70667 36.5071 4.66C36.5538 4.60667 36.5771 4.53667 36.5771 4.45C36.5771 4.39667 36.5405 4.26 36.4671 4.04L36.2671 3.45H34.7171L34.6371 3.7C34.5371 4 34.4871 4.22667 34.4871 4.38C34.4871 4.52667 34.5138 4.66 34.5671 4.78L34.6371 4.9L34.5471 5H33.4471L33.3771 4.82L33.5271 4.78C33.6871 4.73333 33.8071 4.67 33.8871 4.59C33.9671 4.50333 34.0438 4.35333 34.1171 4.14L35.1371 1.2C35.1838 1.03333 35.2071 0.916666 35.2071 0.85C35.2071 0.703333 35.1005 0.6 34.8871 0.54L34.7771 0.51L34.8471 0.33H36.2071L37.5171 4.1ZM36.1671 3.17L35.4871 1.14L34.8171 3.17H36.1671ZM37.6749 4.82C37.8282 4.78 37.9382 4.74 38.0049 4.7C38.0782 4.65333 38.1249 4.59333 38.1449 4.52C38.1716 4.44 38.1849 4.32333 38.1849 4.17V1.57C38.1849 1.25 38.1582 1.02667 38.1049 0.9C38.0582 0.766667 37.9382 0.62 37.7449 0.46L37.8349 0.33H39.5249L39.5949 0.49C39.4016 0.603333 39.2782 0.71 39.2249 0.81C39.1716 0.903333 39.1449 1.07333 39.1449 1.32V3.78C39.1449 4.09333 39.1682 4.31667 39.2149 4.45C39.2682 4.57667 39.3882 4.72 39.5749 4.88L39.4949 5H37.7449L37.6749 4.82Z" fill="black"/>
</svg>
