<svg width="56" height="6" viewBox="0 0 56 6" fill="none" xmlns="http://www.w3.org/2000/svg">
<path d="M3.70973 6H1.90973V1.55H0.299727V0.299999H5.31973V1.55H3.70973V6ZM10.5855 6H8.69551L8.35551 4.56C8.34217 4.50667 8.31884 4.41667 8.28551 4.29C8.25884 4.15667 8.22551 4.06 8.18551 4C8.14551 3.93333 8.08884 3.89 8.01551 3.87C7.82884 3.87667 7.55551 3.88 7.19551 3.88V6H5.39551V0.35C6.20217 0.29 6.95551 0.26 7.65551 0.26C8.28884 0.26 8.80217 0.313333 9.19551 0.42C9.58884 0.52 9.88217 0.696666 10.0755 0.95C10.2755 1.19667 10.3755 1.53667 10.3755 1.97C10.3755 2.37667 10.2822 2.69667 10.0955 2.93C9.90884 3.15667 9.60884 3.29333 9.19551 3.34V3.4C9.42884 3.42 9.62217 3.49667 9.77551 3.63C9.93551 3.75667 10.0422 3.92 10.0955 4.12L10.5855 6ZM7.19551 2.75C7.25551 2.75667 7.37217 2.76 7.54551 2.76C8.05884 2.76 8.35884 2.71667 8.44551 2.63C8.52551 2.55 8.56551 2.36333 8.56551 2.07C8.56551 1.79667 8.49217 1.61 8.34551 1.51C8.20551 1.41 7.97217 1.36 7.64551 1.36C7.57217 1.36 7.42217 1.36667 7.19551 1.38V2.75ZM13.9963 4.75H12.3363L12.0363 6H10.1963L12.0363 0.299999H14.3863L16.1463 6H14.2963L13.9963 4.75ZM13.1563 1.53L12.5663 3.64H13.7563L13.1963 1.53H13.1563ZM17.8136 3.7V6H16.1436V0.299999H17.8336L19.3436 2.6C19.5702 2.94 19.7436 3.22667 19.8636 3.46H19.8936V2.5V0.299999H21.5536V6H19.8536L18.3036 3.6L17.8536 2.92H17.8236L17.8136 3.7ZM27.3479 0.299999H29.2479L27.7079 6H25.0979L23.5479 0.299999H25.4579L26.3779 4.76H26.4279L27.3479 0.299999ZM32.2678 4.75H30.6078L30.3078 6H28.4678L30.3078 0.299999H32.6578L34.4178 6H32.5678L32.2678 4.75ZM31.4278 1.53L30.8378 3.64H32.0278L31.4678 1.53H31.4278ZM36.085 3.7V6H34.415V0.299999H36.105L37.615 2.6C37.8417 2.94 38.015 3.22667 38.135 3.46H38.165V2.5V0.299999H39.825V6H38.125L36.575 3.6L36.125 2.92H36.095L36.085 3.7ZM42.3293 0.299999H44.1393V2.39H45.6893V0.299999H47.4993V6H45.6893V3.54H44.1393V6H42.3293V0.299999ZM51.3107 4.75H49.6507L49.3507 6H47.5107L49.3507 0.299999H51.7007L53.4607 6H51.6107L51.3107 4.75ZM50.4707 1.53L49.8807 3.64H51.0707L50.5107 1.53H50.4707ZM53.468 0.299999H55.268V6H53.468V0.299999Z" fill="white"/>
</svg>
