<svg xmlns="http://www.w3.org/2000/svg" viewBox="0 0 433.1 104.28"><defs><style>.cls-1{fill:#0f73bb;}.cls-2{fill:#fff;}</style></defs><g id="レイヤー_2" data-name="レイヤー 2"><g id="レイヤー_1-2" data-name="レイヤー 1"><path class="cls-1" d="M185.25,31.26,174.83,38a28.64,28.64,0,0,0-8.74-7.18,21.81,21.81,0,0,0-9.56-2,22.77,22.77,0,0,0-18.8,9.29A26.07,26.07,0,0,0,132,54.52a20.43,20.43,0,0,0,5.91,14.9,19.58,19.58,0,0,0,14.56,6,22.55,22.55,0,0,0,11.71-3.12A23.26,23.26,0,0,0,172.79,63H152l1.54-11.82h33.7q-.72,16.53-10.35,26.25t-24.53,9.71q-16.22,0-25.5-11.23a32.54,32.54,0,0,1-7.48-21.47A36,36,0,0,1,130.32,28.2a35.43,35.43,0,0,1,26.07-11,37.32,37.32,0,0,1,11,1.63A35.35,35.35,0,0,1,177,23.36,38.69,38.69,0,0,1,185.25,31.26Z"/><path class="cls-1" d="M199.37,36.17h10.78l-.86,6.71q4.85-8,11.64-8a7.69,7.69,0,0,1,3.4.87l-4.43,11a6.88,6.88,0,0,0-2-.5c-2.36,0-4.46,1.37-6.32,4.1s-3.31,8.25-4.39,16.56l-2.38,18.53H192.63Z"/><path class="cls-1" d="M268.05,36.17h12.11l-6.87,49.29h-12l.73-5.3a26.41,26.41,0,0,1-7.38,5.12A19.62,19.62,0,0,1,247,86.73q-9.79,0-15.58-7.21a26,26,0,0,1-5.79-16.76,28,28,0,0,1,3.7-13.88,27.17,27.17,0,0,1,9.94-10.29A25.27,25.27,0,0,1,252.3,34.9a17.33,17.33,0,0,1,8.42,2.1,17.1,17.1,0,0,1,6.38,6.11ZM249.88,75.94a15,15,0,0,0,7.8-2,15.59,15.59,0,0,0,5.58-6.24A18.4,18.4,0,0,0,265.52,59a13.12,13.12,0,0,0-3.4-9.42,11.82,11.82,0,0,0-9-3.56,14.55,14.55,0,0,0-11,4.75,17.12,17.12,0,0,0-4.52,12.28,12.83,12.83,0,0,0,3.42,9.33A11.7,11.7,0,0,0,249.88,75.94Z"/><path class="cls-1" d="M295.51,17.87h12L305,36.17h7.66l-1.45,10.42h-7.62l-5.29,38.87H286.27l5.31-38.87h-5.93l1.4-10.42h6Z"/><path class="cls-1" d="M351.1,71l10.65,5.52a24.69,24.69,0,0,1-9.5,7.44,30.89,30.89,0,0,1-13.11,2.74q-11.28,0-17.78-6.35t-6.5-16.85A28,28,0,0,1,323,43.21a26.48,26.48,0,0,1,19.64-8.31,24.73,24.73,0,0,1,12.34,3,21.58,21.58,0,0,1,8.54,8.83,26.08,26.08,0,0,1,3.13,12.59,31.6,31.6,0,0,1-.46,5H326.86a11.36,11.36,0,0,0,3.38,8.18c2.13,2,5.06,3,8.81,3A17.86,17.86,0,0,0,351.1,71Zm3.08-15.56a12.74,12.74,0,0,0-4.53-6.86A12.56,12.56,0,0,0,342,46.27a14,14,0,0,0-8,2.4,15,15,0,0,0-5.44,6.8Z"/><path class="cls-1" d="M407.27,43.06l-5.76,9.24a16.74,16.74,0,0,0-4.68-4.87,8.68,8.68,0,0,0-4.59-1.57,4.33,4.33,0,0,0-2.77.91,2.6,2.6,0,0,0-1.13,2,3.37,3.37,0,0,0,.91,2.17,33.17,33.17,0,0,0,5.22,4.22q6.94,5,9.15,8.53a14.42,14.42,0,0,1,2.2,7.73c0,3.66-1.5,7.11-4.5,10.38s-7.36,4.89-13.07,4.89a20.12,20.12,0,0,1-9-2,33.71,33.71,0,0,1-9-7.29l7.47-8.7q5.07,6.7,11.1,6.71a5.91,5.91,0,0,0,3.83-1.16A3.43,3.43,0,0,0,394,71.55,4.21,4.21,0,0,0,393,68.94,37.27,37.27,0,0,0,387,64.17a36,36,0,0,1-7.74-6.84,13.79,13.79,0,0,1-3-8.43A12.51,12.51,0,0,1,381,38.8a16.75,16.75,0,0,1,11.07-3.9A18,18,0,0,1,400.57,37,18.5,18.5,0,0,1,407.27,43.06Z"/><path class="cls-1" d="M423.92,85.12a9.18,9.18,0,1,1,9.18-9.18A9.19,9.19,0,0,1,423.92,85.12Zm-8.53-9.18a8.53,8.53,0,1,0,8.53-8.53A8.55,8.55,0,0,0,415.39,75.94Zm5.1-4.78a21.9,21.9,0,0,1,3.06-.22,5,5,0,0,1,3.33.87,2.42,2.42,0,0,1,.85,1.92,2.51,2.51,0,0,1-2.16,2.51v0a2.33,2.33,0,0,1,1.63,1.78,14.29,14.29,0,0,0,1,2.88h-1.77a9.77,9.77,0,0,1-.76-2.41,1.9,1.9,0,0,0-2.06-1.74h-1.47v4.15h-1.63Zm1.63,4.39h1.65c1.49,0,2.33-.68,2.33-1.69s-.9-1.66-2.41-1.66a8.06,8.06,0,0,0-1.57.1Z"/><ellipse class="cls-1" cx="47.31" cy="52.14" rx="55.61" ry="43.17" transform="translate(-22.28 62.82) rotate(-56.5)"/><path class="cls-2" d="M34.73,60.55a12.77,12.77,0,0,1-1.65-6.77A17.14,17.14,0,0,1,36.86,43a15,15,0,0,1,12.35-6.1,14.53,14.53,0,0,1,6,1.23c6.09,3.1-3.65,8.57.3,6.2l4.49-2.56,7.11-4.34a24.11,24.11,0,0,0-4.51-4.12,23.12,23.12,0,0,0-6.33-3,24.67,24.67,0,0,0-7.2-1.07A23.27,23.27,0,0,0,32,36.49,23.66,23.66,0,0,0,24.8,53.72a21,21,0,0,0,2.53,10.55Z"/><path class="cls-2" d="M69.49,43.43,10.81,76.58l-.39.17L60.8,54.91a.74.74,0,0,1,1,.77c-.62,5.69-5.44,8.52-7.6,9.8a14.89,14.89,0,0,1-7.69,2,17.53,17.53,0,0,1-6.24-1.42l-8.72,3.67c3.93,4,8.53,5.43,14.9,5.43,6.52,0,11.79-2.07,16.11-6.38C70.52,60.89,71,50.27,69.49,43.43Z"/></g></g></svg>